<?xml version="1.0" standalone="no"?>
<!DOCTYPE svg PUBLIC "-//W3C//DTD SVG 20010904//EN"
 "http://www.w3.org/TR/2001/REC-SVG-20010904/DTD/svg10.dtd">
<svg version="1.0" xmlns="http://www.w3.org/2000/svg"
 width="819.000000pt" height="819.000000pt" viewBox="0 0 819.000000 819.000000"
 preserveAspectRatio="xMidYMid meet">

<g transform="translate(0.000000,819.000000) scale(0.100000,-0.100000)"
fill="#000000" stroke="none">
<path d="M3860 8184 c-136 -9 -366 -38 -490 -60 -1686 -307 -2997 -1618 -3304
-3304 -47 -262 -60 -414 -60 -725 0 -311 13 -463 60 -725 307 -1686 1618
-2997 3304 -3304 262 -47 414 -60 725 -60 311 0 463 13 725 60 1686 307 2997
1618 3304 3304 47 262 60 414 60 725 0 311 -13 463 -60 725 -307 1688 -1623
3002 -3309 3304 -77 14 -201 33 -275 41 -128 15 -563 27 -680 19z m-847 -1386
c6 -3 -44 -59 -118 -130 -70 -67 -170 -170 -221 -228 l-94 -105 0 -727 0 -728
-190 0 -190 0 0 966 0 966 401 -3 c220 -2 406 -7 412 -11z m3511 -20 c3 -13 5
-445 5 -960 l-2 -938 -296 2 -296 2 278 6 c298 5 296 5 297 58 0 16 -4 21 -12
16 -9 -6 -9 -3 0 9 23 28 4 637 -19 637 -5 0 -9 18 -9 40 0 29 -4 40 -15 40
-11 0 -15 11 -15 40 0 22 -4 40 -10 40 -5 0 -10 -18 -10 -40 0 -29 -4 -40 -15
-40 -12 0 -15 20 -15 120 0 100 3 120 15 120 13 0 15 21 15 125 l0 125 -33 0
-34 0 -6 113 c-4 61 -7 167 -7 235 l0 122 -80 0 c-110 0 -104 19 8 22 174 4
189 5 208 13 16 7 15 9 -11 15 -23 5 -885 5 -930 0 -13 -2 -85 7 -105 13 -8 2
-12 2 -7 0 16 -10 6 -24 -13 -18 -11 3 -20 3 -20 -2 0 -12 38 -34 44 -25 2 4
26 7 53 6 26 -1 157 -3 291 -3 154 -1 242 -5 242 -11 0 -6 -90 -10 -250 -10
l-250 0 -6 -26 -7 -26 -17 26 c-9 15 -20 23 -23 19 -4 -3 -7 -1 -7 6 0 7 -5 9
-10 6 -8 -5 -7 -11 1 -21 6 -7 14 -12 18 -10 3 2 11 -7 18 -20 10 -23 8 -22
-30 8 -23 18 -48 39 -57 46 -8 7 -35 28 -58 47 -27 21 -37 35 -28 35 9 0 19
-7 23 -15 5 -14 8 -14 29 0 21 14 74 16 417 14 480 -3 549 -2 557 10 3 6 39
12 80 14 89 4 -655 13 -785 9 -49 -1 -91 -7 -93 -12 -2 -6 -44 -10 -98 -10
-61 0 -93 4 -89 10 3 6 1 10 -5 10 -6 0 -8 5 -5 10 4 6 -7 10 -24 10 -32 0
-39 -19 -11 -32 13 -6 13 -7 -1 -7 -9 -1 -23 6 -30 15 -7 9 -22 20 -34 24 -11
5 271 9 626 9 l647 1 6 -22z m-521 -25 c-13 -2 -33 -2 -45 0 -13 2 -3 4 22 4
25 0 35 -2 23 -4z m240 0 c-13 -2 -35 -2 -50 0 -16 2 -5 4 22 4 28 0 40 -2 28
-4z m-1812 -42 c110 -7 175 -17 264 -41 66 -17 121 -33 124 -35 12 -13 -12
-17 -35 -6 -23 10 -26 9 -21 -4 9 -21 1 -19 -22 6 -11 12 -33 22 -51 23 -16 1
-30 4 -30 7 0 3 -12 5 -27 2 -24 -3 -25 -2 -8 6 24 11 -113 3 -162 -9 -17 -4
-34 -6 -36 -3 -3 2 -146 5 -319 6 -226 2 -320 6 -338 15 l-25 13 25 -7 c41
-10 530 -16 590 -7 37 6 -34 8 -210 7 -146 -1 -292 1 -325 5 -33 5 -82 5 -110
1 l-50 -7 40 -3 40 -3 -35 -4 c-19 -2 -57 -8 -84 -14 -38 -7 -51 -7 -58 3 -5
8 -11 9 -15 3 -8 -10 -11 -11 -69 -13 -20 -1 -33 -6 -29 -12 3 -5 0 -7 -8 -4
-8 3 -18 1 -21 -4 -3 -5 4 -12 16 -15 12 -4 20 -9 16 -12 -3 -3 -17 0 -31 6
-21 9 -30 9 -42 -1 -13 -11 -13 -15 -3 -22 9 -6 6 -7 -8 -3 -12 3 -34 0 -50
-6 -16 -7 -32 -12 -36 -11 -11 3 -10 -6 2 -28 8 -16 8 -18 -5 -14 -8 4 -15 10
-15 16 0 5 -13 1 -29 -8 -17 -10 -27 -22 -24 -27 3 -6 1 -7 -6 -3 -6 4 -19 2
-27 -5 -8 -6 -17 -10 -20 -7 -5 6 94 74 123 85 10 3 25 12 34 20 54 46 266
102 424 112 172 11 516 12 686 2z m473 -117 c28 -14 58 -32 67 -40 8 -8 21
-14 27 -14 7 0 21 -9 32 -20 11 -11 20 -17 20 -14 0 6 33 -22 128 -108 l34
-30 -79 -78 c-60 -60 -81 -75 -91 -67 -11 8 -10 13 5 21 10 6 21 11 24 11 16
1 69 56 63 66 -4 7 -3 9 4 5 7 -4 10 10 9 44 -1 46 -4 52 -39 76 -21 15 -38
31 -38 35 0 5 -7 9 -15 9 -8 0 -24 9 -35 20 -11 11 -27 20 -35 20 -8 0 -24 9
-34 19 -11 11 -22 16 -26 13 -4 -4 -11 1 -16 11 -6 10 -18 16 -27 13 -9 -3
-30 -7 -47 -10 -27 -5 -28 -4 -12 9 11 7 26 11 35 8 15 -4 15 -3 2 6 -8 5 -26
8 -40 5 -20 -4 -22 -3 -10 5 22 16 37 14 94 -15z m632 -1 c-2 -14 -10 -27 -18
-29 -14 -2 -14 2 -1 27 18 36 22 37 19 2z m-739 -9 c-3 -3 -12 -4 -19 -1 -8 3
-5 6 6 6 11 1 17 -2 13 -5z m-39 -29 c-3 -3 -9 2 -12 12 -6 14 -5 15 5 6 7 -7
10 -15 7 -18z m739 -27 c-3 -8 -6 -5 -6 6 -1 11 2 17 5 13 3 -3 4 -12 1 -19z
m-542 -8 c3 -5 -1 -10 -9 -10 -9 0 -16 5 -16 10 0 6 4 10 9 10 6 0 13 -4 16
-10z m-1662 -17 c3 -5 -6 -9 -20 -10 -19 -1 -22 1 -12 8 17 11 26 11 32 2z
m1632 -3 c3 -6 -1 -7 -9 -4 -18 7 -21 14 -7 14 6 0 13 -4 16 -10z m79 2 c3 -5
-1 -9 -9 -9 -8 0 -12 4 -9 9 3 4 7 8 9 8 2 0 6 -4 9 -8z m-959 -22 c-3 -5 -21
-10 -38 -9 -27 0 -29 2 -12 9 28 12 57 12 50 0z m165 3 c0 -5 -14 -9 -30 -10
-17 -1 -30 2 -30 7 0 6 14 10 30 10 17 0 30 -3 30 -7z m1300 -152 c16 5 49
-14 43 -24 -4 -7 0 -7 10 1 9 8 20 11 26 8 5 -3 7 2 4 12 -2 10 -10 19 -18 19
-7 0 -11 -6 -8 -14 3 -9 0 -11 -10 -7 -19 7 -13 27 18 60 25 27 40 31 32 10
-3 -8 2 -16 14 -19 22 -6 35 8 18 19 -8 5 -9 3 -4 -6 5 -9 4 -11 -4 -6 -19 12
-2 27 19 16 25 -13 40 -12 18 1 -25 14 -22 36 5 53 18 12 56 15 184 13 89 -1
159 -5 157 -9 -3 -4 -72 -8 -155 -8 -82 0 -149 -4 -149 -9 0 -7 174 -18 330
-20 71 -2 90 -4 95 -11 3 -4 15 -6 28 -3 21 6 21 6 -3 -15 -14 -12 -20 -21
-13 -22 6 0 13 6 16 13 2 6 8 9 12 5 10 -10 -14 -40 -26 -32 -5 3 -9 -87 -9
-209 l0 -213 -157 -160 c-181 -183 -288 -275 -424 -366 -165 -110 -355 -191
-511 -218 l-67 -12 -118 46 c-112 44 -370 116 -416 116 -58 1 -47 17 102 151
l150 133 85 13 c209 30 359 133 564 385 156 193 142 161 144 328 1 124 3 133
7 62 3 -45 8 -82 11 -81z m585 149 c-3 -5 -15 -10 -25 -10 -10 0 -22 5 -25 10
-4 6 7 10 25 10 18 0 29 -4 25 -10z m-2958 -30 c1 -11 -3 -20 -8 -20 -6 0 -7
-4 -4 -10 9 -15 -1 -12 -14 4 -9 11 -8 18 4 30 21 20 20 20 22 -4z m803 10 c0
-6 17 -10 38 -10 20 0 54 -9 75 -20 44 -24 76 -25 103 -5 10 8 31 15 47 15 17
0 27 5 27 15 0 8 7 15 15 15 8 0 15 -5 15 -12 0 -6 10 -22 22 -35 l22 -23 -25
1 c-13 0 -35 -2 -49 -6 -20 -5 -22 -5 -10 5 13 10 12 11 -5 5 -11 -4 -25 -8
-32 -8 -7 0 -10 -4 -7 -9 3 -5 9 -6 14 -3 13 8 60 -17 53 -28 -3 -6 -2 -7 3
-4 13 8 104 -78 139 -131 15 -23 31 -40 35 -37 4 3 11 -2 14 -11 3 -8 2 -12
-4 -9 -6 3 -7 -1 -4 -9 3 -9 10 -14 14 -11 4 3 10 -9 13 -25 5 -21 11 -28 21
-24 11 4 15 -1 13 -23 -2 -24 2 -28 27 -31 18 -2 26 0 21 7 -7 13 2 13 30 1
12 -5 14 -9 6 -9 -11 -1 -10 -5 5 -17 19 -15 19 -15 -1 -6 -35 17 -273 35
-369 29 -315 -21 -542 -188 -587 -432 -23 -124 12 -242 99 -336 120 -130 118
-129 822 -325 436 -121 550 -161 664 -228 152 -90 314 -279 380 -444 19 -47
35 -72 45 -72 11 0 12 -3 4 -8 -9 -5 -8 -22 3 -67 23 -91 23 -330 0 -430 -68
-302 -334 -592 -626 -683 -248 -76 -432 -49 -572 85 -20 19 -41 32 -47 29 -6
-4 -9 -2 -6 6 3 7 -13 37 -34 66 -22 29 -43 61 -46 72 -4 11 -10 18 -14 16 -4
-3 -7 5 -6 16 1 20 6 21 66 17 122 -8 267 -2 345 16 213 46 382 184 445 361
17 48 20 76 16 150 -6 124 -41 200 -134 293 -116 115 -121 116 -928 339 -159
44 -329 95 -377 112 -270 98 -459 299 -562 600 l-40 115 0 192 c1 143 4 196
14 208 11 13 10 15 -4 9 -9 -3 -16 -3 -16 0 0 14 33 56 40 51 5 -3 6 5 3 17
-4 19 -3 20 6 8 8 -11 9 -7 4 19 -4 25 -3 32 6 27 6 -4 11 -4 10 1 -3 20 2 34
11 28 6 -4 7 1 3 11 -5 13 -3 15 7 9 9 -5 11 -4 6 3 -4 7 -3 12 2 12 5 0 8 10
8 22 -1 13 4 23 11 23 7 0 18 7 25 15 11 12 11 12 -4 1 -10 -7 -18 -9 -18 -3
0 15 26 33 36 24 4 -4 3 0 -4 9 -9 12 -9 20 3 35 13 18 14 18 8 -6 -6 -23 -4
-22 23 10 16 19 33 38 38 42 6 4 5 12 -2 21 -14 17 -5 50 12 44 6 -2 10 -12 8
-21 -3 -14 1 -13 22 5 20 17 23 25 15 36 -9 10 -6 13 12 13 34 1 71 34 63 57
-4 13 -3 15 4 4 10 -13 57 -6 48 8 -3 4 4 13 16 20 16 10 19 10 12 -1 -4 -7 1
-5 12 4 11 9 53 33 94 53 41 20 83 40 92 46 10 5 27 9 39 9 18 0 19 2 9 15
-11 14 -10 14 14 5 34 -12 46 -13 26 0 -13 8 -12 11 5 24 11 8 22 10 25 5 8
-11 110 -9 110 2 0 5 -15 9 -34 9 -41 0 -72 10 -57 19 17 11 61 11 61 1z m200
0 c0 -5 -10 -10 -22 -9 -22 0 -22 1 -3 9 11 5 21 9 23 9 1 1 2 -3 2 -9z m2035
-8 c-9 -9 -35 -11 -35 -3 0 14 12 20 26 14 8 -3 12 -8 9 -11z m-1099 -17 c-3
-8 -1 -16 5 -19 5 -2 4 -3 -2 -2 -7 1 -13 12 -14 24 -1 11 2 19 7 16 5 -4 7
-12 4 -19z m-2016 -30 c-7 -8 -9 -15 -4 -15 5 0 2 -5 -6 -10 -18 -11 -20 -32
-5 -42 5 -4 -5 -6 -22 -4 -25 2 -34 -1 -38 -15 -4 -11 -11 -19 -17 -19 -6 0
-5 -7 3 -17 13 -16 12 -17 -3 -4 -16 12 -19 12 -17 -5 0 -5 -48 -73 -60 -84
-4 -3 -6 -13 -6 -22 0 -10 -4 -18 -9 -17 -20 1 -81 -130 -66 -145 5 -5 10 -15
10 -20 0 -6 -5 -3 -11 7 -6 9 -14 15 -20 12 -16 -10 -10 4 32 87 31 58 44 76
51 66 7 -9 8 -7 5 9 -3 14 5 33 24 55 15 18 28 38 29 43 0 11 128 155 137 155
3 0 0 -7 -7 -15z m685 -16 c-27 -22 -78 -40 -110 -38 -11 1 -2 5 20 10 65 15
73 20 50 29 -18 8 -17 9 7 9 15 1 30 6 33 11 4 6 11 8 16 4 5 -3 -2 -15 -16
-25z m558 -2 c42 32 120 -9 110 -59 -3 -14 0 -29 6 -32 17 -11 13 -41 -8 -60
-17 -16 -19 -16 -26 1 -5 10 -9 21 -10 26 -2 4 -4 10 -5 15 -4 9 -7 24 -9 36
0 5 -7 3 -14 -3 -11 -8 -20 -3 -41 24 -16 19 -34 35 -42 35 -7 0 -16 5 -20 12
-4 7 -3 8 4 4 7 -4 12 -2 12 5 0 8 4 8 15 -1 10 -8 19 -9 28 -3z m-668 -57
c-3 -5 -12 -10 -18 -10 -7 0 -6 4 3 10 19 12 23 12 15 0z m-40 -10 c3 -5 -3
-10 -15 -10 -12 0 -18 5 -15 10 3 6 10 10 15 10 5 0 12 -4 15 -10z m1510 -8
c-3 -3 -11 0 -18 7 -9 10 -8 11 6 5 10 -3 15 -9 12 -12z m-1705 -76 c0 -3 -4
-8 -10 -11 -5 -3 -10 -1 -10 4 0 6 5 11 10 11 6 0 10 -2 10 -4z m40 -25 c0
-11 -31 -24 -39 -16 -3 3 1 10 9 15 19 12 30 12 30 1z m1600 -4 c0 -2 -17 -19
-37 -38 l-38 -34 34 38 c33 34 41 42 41 34z m-1650 -51 c0 -3 -4 -8 -10 -11
-5 -3 -10 -1 -10 4 0 6 5 11 10 11 6 0 10 -2 10 -4z m1130 -32 c0 -29 -15 -31
-30 -5 -13 26 -13 27 10 28 15 1 20 -4 20 -23z m60 16 c0 -5 -4 -10 -10 -10
-5 0 -10 5 -10 10 0 6 5 10 10 10 6 0 10 -4 10 -10z m331 -23 c-10 -9 -11 -8
-5 6 3 10 9 15 12 12 3 -3 0 -11 -7 -18z m49 10 c0 -2 -25 -27 -55 -55 -30
-29 -55 -48 -55 -43 0 5 7 16 15 24 8 8 11 18 7 22 -4 5 0 6 8 3 9 -3 28 6 44
23 28 27 36 33 36 26z m-1646 -52 c-9 -14 -19 -24 -21 -21 -6 6 20 46 30 46 4
0 0 -11 -9 -25z m1251 -5 c13 -5 14 -9 5 -9 -8 0 -24 4 -35 9 -13 5 -14 9 -5
9 8 0 24 -4 35 -9z m265 -75 c-7 -8 -17 -12 -23 -8 -6 4 -3 11 8 19 23 17 32
10 15 -11z m-64 1 c19 -14 19 -14 -1 -13 -12 1 -19 -3 -17 -11 1 -8 -2 -11 -8
-7 -8 5 -7 11 1 21 14 17 -2 19 -31 4 -12 -7 -26 -7 -42 0 -23 10 -23 10 2 6
14 -3 32 -1 40 4 21 13 33 12 56 -4z m-1996 -71 c-20 -47 -20 -47 0 -42 27 7
25 1 -10 -35 -16 -16 -30 -37 -31 -46 0 -9 -2 -26 -4 -37 -19 -107 -25 -204
-24 -405 1 -199 4 -238 17 -253 15 -16 14 -17 -1 -11 -12 4 -17 1 -17 -10 0
-13 5 -14 28 -6 l27 10 -30 -25 -30 -25 -3 278 c-2 155 2 318 8 371 12 110 38
221 52 221 5 0 8 6 6 13 -5 24 13 70 23 60 6 -6 3 -26 -11 -58z m36 21 c0 -14
-5 -21 -9 -17 -4 4 -5 15 -1 24 9 24 12 21 10 -7z m1974 10 c0 -3 -4 -8 -10
-11 -5 -3 -10 -1 -10 4 0 6 5 11 10 11 6 0 10 -2 10 -4z m-1593 -53 c-9 -19
-27 -32 -27 -19 0 2 -3 13 -7 23 -6 16 -5 17 12 3 17 -13 18 -13 13 1 -4 9 -1
16 7 16 10 0 11 -6 2 -24z m2982 -148 c-5 -71 -7 -170 -5 -220 3 -73 1 -93
-12 -105 -14 -13 -15 -12 -9 3 3 9 7 121 7 249 1 191 4 229 14 217 11 -11 12
-41 5 -144z m-44 -366 c4 -6 1 -9 -7 -7 -8 2 -26 -9 -41 -24 -16 -16 -22 -28
-16 -28 7 0 10 -3 6 -6 -3 -3 -11 -3 -17 1 -8 5 -1 18 21 41 35 36 44 40 54
23z m-91 -75 c3 -8 2 -12 -4 -9 -5 3 -23 -8 -40 -25 -25 -24 -27 -30 -13 -30
15 0 16 -2 3 -10 -44 -28 -39 5 7 52 20 21 38 38 39 38 1 0 5 -7 8 -16z
m-2984 -81 c-14 -3 -28 -10 -32 -16 -4 -6 -10 -8 -15 -4 -11 12 18 27 47 25
l25 -1 -25 -4z m2880 -8 c-7 -8 -18 -15 -24 -15 -6 0 -2 7 8 15 25 19 32 19
16 0z m-23 -31 c-3 -3 -12 -4 -19 -1 -8 3 -5 6 6 6 11 1 17 -2 13 -5z m-17
-34 c0 -5 -4 -10 -10 -10 -5 0 -10 5 -10 10 0 6 5 10 10 10 6 0 10 -4 10 -10z
m-3010 -4 c0 -2 -7 -7 -16 -10 -8 -3 -12 -2 -9 4 6 10 25 14 25 6z m-50 -31
c0 -3 -12 -10 -27 -16 -19 -7 -29 -6 -37 2 -8 9 -8 10 1 5 6 -3 22 -2 35 3 29
12 28 12 28 6z m2936 -37 c4 -6 3 -8 -3 -5 -6 4 -16 0 -23 -8 -7 -8 -17 -15
-22 -15 -6 0 0 9 13 20 29 23 26 23 35 8z m334 2 c0 -5 -5 -10 -11 -10 -5 0
-7 5 -4 10 3 6 8 10 11 10 2 0 4 -4 4 -10z m-3 -36 c-3 -3 -12 -4 -19 -1 -8 3
-5 6 6 6 11 1 17 -2 13 -5z m136 -81 c-7 -2 -19 -2 -25 0 -7 3 -2 5 12 5 14 0
19 -2 13 -5z m-129 -18 c-7 -16 -24 -21 -24 -6 0 8 7 13 27 20 1 1 0 -6 -3
-14z m-249 -14 c-3 -6 -11 -11 -16 -11 -5 0 -4 6 3 14 14 16 24 13 13 -3z
m425 -1 c10 0 22 5 25 10 7 12 35 14 35 2 0 -11 -75 -32 -78 -21 -2 5 -11 9
-20 9 -15 0 -15 2 -2 10 10 6 16 6 18 0 2 -6 12 -10 22 -10z m60 -30 c0 -5 -7
-7 -15 -4 -8 4 -15 8 -15 10 0 2 7 4 15 4 8 0 15 -4 15 -10z m-3475 -372 c28
-5 60 -10 72 -10 38 0 15 -18 -25 -19 l-37 -2 35 -7 c30 -6 31 -8 9 -9 -34 -1
-46 -28 -17 -37 11 -3 23 -2 27 3 8 13 62 23 55 11 -3 -5 5 -7 18 -5 12 2 8
-1 -9 -6 -37 -12 -46 -31 -10 -23 16 4 14 2 -6 -7 -15 -7 -24 -17 -20 -21 5
-4 1 -7 -7 -6 -8 1 -28 2 -45 1 l-30 -2 24 -19 23 -20 -33 0 -34 -1 29 -24
c17 -13 35 -21 40 -18 6 4 8 3 4 -2 -4 -4 -2 -15 5 -23 7 -10 8 -13 1 -9 -7 4
-17 0 -24 -8 -18 -21 -40 -19 -40 5 0 22 16 27 22 8 2 -6 10 -8 16 -4 9 6 9
10 -1 20 -18 19 -57 30 -57 17 0 -6 -6 -11 -13 -11 -20 0 -59 -40 -54 -55 3
-7 -12 -22 -36 -35 -24 -14 -36 -25 -28 -28 7 -2 16 0 20 6 4 7 11 4 19 -8 7
-11 8 -20 3 -20 -5 0 -11 4 -13 9 -1 5 -9 3 -15 -4 -12 -13 -4 -14 50 -6 4 0
2 10 -5 21 -11 17 -10 22 2 30 19 13 30 12 30 0 0 -5 -4 -10 -10 -10 -5 0 -10
-5 -10 -11 0 -8 4 -9 13 0 8 6 17 8 20 4 4 -3 7 -1 7 5 0 6 -8 18 -17 28 -16
16 -16 16 6 9 17 -5 22 -4 16 5 -5 8 -3 11 6 8 8 -3 14 -11 15 -19 0 -16 -25
-49 -39 -49 -5 0 -18 -12 -29 -26 -11 -14 -26 -23 -34 -20 -7 3 -11 0 -8 -7 2
-7 -5 -18 -16 -25 -11 -7 -20 -8 -20 -3 0 5 6 11 13 14 9 3 9 7 -2 20 -18 23
-51 22 -51 0 0 -15 -2 -16 -10 -3 -8 12 -10 12 -16 -3 -3 -9 -3 -25 2 -34 4
-10 8 -28 9 -39 1 -20 -1 -21 -21 -7 -14 9 -24 10 -28 4 -4 -5 3 -12 14 -16
11 -3 20 -11 20 -18 0 -8 -3 -8 -12 1 -9 9 -16 8 -30 -5 -26 -24 -22 -40 5
-17 l22 19 -19 -22 c-10 -13 -23 -20 -27 -17 -12 7 -11 32 2 36 5 2 12 16 13
31 3 21 0 25 -9 17 -7 -6 -20 -8 -29 -4 -11 4 -19 -2 -25 -19 -5 -14 -16 -27
-23 -30 -8 -3 -6 -6 5 -6 15 -1 18 -8 15 -36 -2 -24 3 -39 12 -45 15 -9 13
-11 -12 -14 -7 0 -14 -15 -16 -31 -3 -29 -5 -30 -50 -28 l-47 1 45 -6 c51 -8
56 -20 43 -86 -12 -54 -38 -69 -63 -36 -11 14 -20 19 -20 13 0 -7 -9 -13 -20
-13 -11 0 -20 -4 -20 -10 0 -5 -9 -10 -20 -10 -11 0 -20 5 -20 10 0 6 7 10 15
10 8 0 15 5 15 10 0 6 -5 10 -11 10 -6 0 -17 7 -25 15 -24 24 -29 18 -26 -28
3 -38 1 -44 -22 -55 -22 -10 -26 -9 -31 9 -4 10 -6 32 -5 47 3 46 -2 128 -7
104 -3 -15 -10 -22 -19 -18 -9 3 -14 -1 -14 -14 0 -12 5 -17 14 -14 17 6 32
-167 17 -194 -12 -19 -13 -15 -13 48 l0 45 -8 -50 c-12 -75 -12 -147 1 -140 6
4 7 19 4 35 -3 16 -2 31 4 35 7 4 11 -15 11 -56 0 -53 -2 -60 -15 -49 -13 11
-15 -10 -18 -166 -1 -99 -4 137 -5 523 -1 386 0 708 4 716 4 12 50 14 307 10
166 -3 325 -9 352 -15z m3303 -668 c-1 -234 -4 -479 -8 -545 -3 -66 -7 184 -7
555 0 386 3 619 8 545 3 -71 7 -321 7 -555z m-3149 647 c0 -9 -2 -9 -5 0 -3 7
-13 9 -22 6 -14 -4 -14 -3 -2 5 16 12 30 7 29 -11z m3508 7 c-3 -3 -12 -4 -19
-1 -8 3 -5 6 6 6 11 1 17 -2 13 -5z m-3524 -31 c-7 -2 -19 -2 -25 0 -7 3 -2 5
12 5 14 0 19 -2 13 -5z m-3 -93 c0 -5 -7 -7 -15 -4 -8 4 -15 8 -15 10 0 2 7 4
15 4 8 0 15 -4 15 -10z m0 -35 c-7 -8 -17 -15 -22 -15 -11 0 14 29 26 30 5 0
3 -7 -4 -15z m2950 -10 c0 -2 -10 -9 -22 -15 -22 -11 -22 -10 -4 4 21 17 26
19 26 11z m-2980 -29 c0 -2 -7 -9 -15 -16 -13 -11 -14 -10 -9 4 5 14 24 23 24
12z m2920 -11 c-7 -8 -17 -15 -23 -15 -6 0 -2 7 9 15 25 19 30 19 14 0z
m-2014 -120 c70 -31 229 -78 354 -106 52 -11 95 -21 96 -22 1 -1 -71 -67 -159
-147 l-160 -145 -74 -7 c-236 -23 -364 -103 -598 -378 -100 -118 -179 -203
-275 -296 l-65 -64 -201 0 -201 0 -7 59 c-4 32 -6 134 -6 227 l2 169 146 143
c297 290 508 435 771 526 101 35 223 63 288 65 18 1 58 -10 89 -24z m-1166
-55 c0 -5 -5 -10 -11 -10 -5 0 -7 5 -4 10 3 6 8 10 11 10 2 0 4 -4 4 -10z
m-25 -41 c-4 -5 -1 -9 6 -9 8 0 8 -4 -1 -15 -19 -23 -27 -18 -22 15 2 16 8 27
13 24 5 -3 7 -10 4 -15z m-107 -331 l-2 -163 -5 140 c-6 131 -4 185 5 185 2 0
3 -73 2 -162z m-28 112 c0 -11 -4 -20 -10 -20 -5 0 -10 9 -10 20 0 11 5 20 10
20 6 0 10 -9 10 -20z m-110 -178 c0 -5 -15 -16 -32 -25 -32 -15 -32 -16 -10
-23 52 -15 6 -45 -67 -43 -28 1 -23 3 22 13 32 8 27 26 -8 26 -36 0 -39 17 -4
25 17 4 42 13 57 21 31 16 42 17 42 6z m-156 -61 c3 -5 -1 -11 -9 -15 -9 -3
-15 0 -15 9 0 16 16 20 24 6z m-14 -71 c-11 -7 -12 -12 -3 -21 12 -12 7 -39
-7 -39 -4 0 -7 22 -6 50 1 44 3 48 16 34 13 -13 13 -16 0 -24z m90 20 c0 -5
-4 -10 -10 -10 -5 0 -10 5 -10 10 0 6 5 10 10 10 6 0 10 -4 10 -10z m1510
-173 c0 -2 -12 -14 -27 -28 l-28 -24 24 28 c23 25 31 32 31 24z m300 -77 c8
-5 11 -10 5 -10 -5 0 -17 5 -25 10 -8 5 -10 10 -5 10 6 0 17 -5 25 -10z m2357
-82 c-3 -7 -5 -2 -5 12 0 14 2 19 5 13 2 -7 2 -19 0 -25z m-1 -31 c12 4 14
-37 14 -286 l0 -291 -310 0 c-170 0 -310 3 -310 7 0 4 24 29 53 56 28 27 105
99 171 161 65 61 123 114 129 117 5 4 6 12 2 19 -5 9 -4 11 4 6 15 -10 43 13
34 27 -3 5 -1 7 4 4 11 -7 47 26 38 35 -3 3 3 11 12 19 17 13 17 13 3 -6 -8
-11 15 9 52 44 37 35 70 76 74 90 5 19 8 22 11 9 3 -10 10 -15 19 -11z m-2856
-1 c0 -2 -8 -10 -17 -17 -16 -13 -17 -12 -4 4 13 16 21 21 21 13z m2800 -29
c0 -2 -10 -12 -22 -23 l-23 -19 19 23 c18 21 26 27 26 19z m-2860 -32 c-13
-14 -28 -25 -34 -25 -6 0 3 11 19 25 39 31 45 32 15 0z m-83 -76 c-9 -6 -15
-15 -11 -20 3 -5 0 -8 -7 -7 -6 2 -14 -3 -16 -9 -3 -7 0 -13 6 -13 6 0 11 -5
11 -12 0 -8 -6 -6 -17 5 -16 16 -15 18 12 47 16 16 31 27 34 24 3 -3 -2 -10
-12 -15z m-1320 -31 c-3 -7 -5 -2 -5 12 0 14 2 19 5 13 2 -7 2 -19 0 -25z
m1448 -146 c-3 -3 -11 0 -18 7 -9 10 -8 11 6 5 10 -3 15 -9 12 -12z m126 -69
c12 -16 12 -17 -2 -6 -9 7 -20 9 -24 5 -5 -4 -5 -1 -1 6 9 16 11 15 27 -5z
m-1199 -761 c3 -26 3 -75 0 -110 l-4 -62 -179 0 -179 0 0 -95 0 -95 129 0 c71
0 136 -3 145 -6 13 -5 16 -25 16 -110 l0 -104 -145 0 -145 0 0 -90 0 -90 179
0 179 0 6 -31 c3 -17 6 -67 6 -110 l0 -79 -300 0 -300 0 0 515 0 515 294 0
293 0 5 -48z m549 6 c19 -24 92 -115 161 -203 69 -88 132 -166 140 -173 16
-13 22 -7 253 291 l100 127 75 0 75 0 -1 -378 c-1 -207 -2 -439 -3 -514 l-1
-138 -110 0 -110 0 -2 278 -3 277 -119 -160 c-65 -88 -124 -166 -130 -173 -9
-9 -39 24 -136 153 -69 90 -128 164 -132 165 -5 0 -8 -121 -8 -270 l0 -270
-110 0 -110 0 0 515 0 515 68 0 c68 0 68 0 103 -42z m1852 -470 c119 -281 215
-513 214 -514 -5 -5 -47 -6 -143 -5 l-101 1 -45 103 -44 102 -190 2 -189 3
-44 -105 -44 -105 -123 0 c-68 0 -124 2 -124 4 0 10 212 508 350 821 34 77 67
155 73 173 l10 32 92 0 91 0 217 -512z m711 481 c3 -17 6 -249 6 -515 l0 -484
-115 0 -115 0 0 515 0 515 109 0 109 0 6 -31z m656 -346 c0 -208 3 -388 6
-400 6 -23 8 -23 195 -23 103 0 199 -4 213 -10 26 -9 26 -11 26 -115 l0 -105
-330 0 -330 0 0 515 0 515 110 0 110 0 0 -377z"/>
<path d="M5413 6763 c20 -2 54 -2 75 0 20 2 3 4 -38 4 -41 0 -58 -2 -37 -4z"/>
<path d="M6458 6743 c6 -2 18 -2 25 0 6 3 1 5 -13 5 -14 0 -19 -2 -12 -5z"/>
<path d="M5361 6711 c-9 -6 -10 -11 -2 -15 6 -4 11 -3 11 3 0 5 8 12 18 14 12
3 13 5 2 6 -8 0 -21 -3 -29 -8z"/>
<path d="M6420 6450 c0 -73 4 -120 10 -120 6 0 10 47 10 120 0 73 -4 120 -10
120 -6 0 -10 -47 -10 -120z"/>
<path d="M4485 6690 c-13 -6 -15 -9 -5 -9 8 0 22 4 30 9 18 12 2 12 -25 0z"/>
<path d="M3628 6673 c7 -3 16 -2 19 1 4 3 -2 6 -13 5 -11 0 -14 -3 -6 -6z"/>
<path d="M4428 6673 c7 -3 16 -2 19 1 4 3 -2 6 -13 5 -11 0 -14 -3 -6 -6z"/>
<path d="M3360 6610 c-9 -6 -10 -10 -3 -10 6 0 15 5 18 10 8 12 4 12 -15 0z"/>
<path d="M5160 6396 c0 -4 7 -14 15 -22 8 -9 15 -11 15 -6 0 5 -7 15 -15 22
-8 7 -15 9 -15 6z"/>
<path d="M5157 6350 c3 -11 9 -17 15 -14 5 3 4 12 -3 20 -16 19 -18 18 -12 -6z"/>
<path d="M5619 6333 c-13 -16 -12 -17 4 -4 9 7 17 15 17 17 0 8 -8 3 -21 -13z"/>
<path d="M5500 6296 c0 -22 3 -27 11 -19 8 8 8 16 0 30 -9 16 -10 14 -11 -11z"/>
<path d="M4315 6367 c-4 -11 -3 -23 4 -30 15 -15 19 -7 11 23 -6 22 -8 23 -15
7z"/>
<path d="M4377 6333 c-4 -3 -4 -10 0 -16 3 -6 7 -23 8 -39 3 -31 11 -45 21
-35 4 4 2 13 -5 21 -7 8 -9 25 -6 39 6 24 -6 43 -18 30z"/>
<path d="M2241 4504 c0 -11 3 -14 6 -6 3 7 2 16 -1 19 -3 4 -6 -2 -5 -13z"/>
<path d="M2908 4423 c7 -3 16 -2 19 1 4 3 -2 6 -13 5 -11 0 -14 -3 -6 -6z"/>
<path d="M2858 4413 c6 -2 18 -2 25 0 6 3 1 5 -13 5 -14 0 -19 -2 -12 -5z"/>
<path d="M2783 4343 c9 -2 23 -2 30 0 6 3 -1 5 -18 5 -16 0 -22 -2 -12 -5z"/>
<path d="M2740 4263 c0 -5 -10 -15 -22 -21 l-23 -11 23 0 c22 -1 41 23 28 36
-3 4 -6 2 -6 -4z"/>
<path d="M2668 4173 c6 -2 18 -2 25 0 6 3 1 5 -13 5 -14 0 -19 -2 -12 -5z"/>
<path d="M2590 4100 c0 -12 50 -33 58 -25 3 3 0 5 -6 5 -7 0 -12 7 -12 15 0 8
-9 15 -20 15 -11 0 -20 -5 -20 -10z"/>
<path d="M2280 3810 c0 -19 3 -21 12 -12 9 9 9 15 0 24 -9 9 -12 7 -12 -12z"/>
<path d="M2400 3790 c-12 -7 -12 -12 -3 -21 15 -15 26 -7 21 15 -2 11 -7 13
-18 6z"/>
<path d="M2211 3754 c0 -11 3 -14 6 -6 3 7 2 16 -1 19 -3 4 -6 -2 -5 -13z"/>
<path d="M2458 3763 c7 -3 16 -2 19 1 4 3 -2 6 -13 5 -11 0 -14 -3 -6 -6z"/>
<path d="M4641 1678 c-13 -35 -29 -82 -37 -105 l-13 -43 84 0 84 0 -28 78
c-47 124 -50 132 -59 132 -4 0 -18 -28 -31 -62z"/>
</g>
</svg>
